<?xml version="1.0" encoding="UTF-8" standalone="no"?>
<!DOCTYPE svg PUBLIC "-//W3C//DTD SVG 1.1//EN"
 "http://www.w3.org/Graphics/SVG/1.1/DTD/svg11.dtd">
<!-- Generated by graphviz version 2.42.3 (20191010.1750)
 -->
<!-- Title: %3 Pages: 1 -->
<svg width="402pt" height="995pt"
 viewBox="0.00 0.00 402.00 995.00" xmlns="http://www.w3.org/2000/svg" xmlns:xlink="http://www.w3.org/1999/xlink">
<g id="graph0" class="graph" transform="scale(1 1) rotate(0) translate(4 991)">
<title>%3</title>
<polygon fill="white" stroke="transparent" points="-4,4 -4,-991 398,-991 398,4 -4,4"/>
<!-- 140531595614064 -->
<g id="node1" class="node">
<title>140531595614064</title>
<polygon fill="#caff70" stroke="black" points="298.5,-30 244.5,-30 244.5,0 298.5,0 298.5,-30"/>
<text text-anchor="middle" x="271.5" y="-18" font-family="monospace" font-size="10.00">loss</text>
<text text-anchor="middle" x="271.5" y="-7" font-family="monospace" font-size="10.00">()</text>
</g>
<!-- 140531595567168 -->
<g id="node2" class="node">
<title>140531595567168</title>
<polygon fill="lightgrey" stroke="black" points="328,-85 215,-85 215,-66 328,-66 328,-85"/>
<text text-anchor="middle" x="271.5" y="-73" font-family="monospace" font-size="10.00">MseLossBackward0</text>
</g>
<!-- 140531595567168&#45;&gt;140531595614064 -->
<g id="edge28" class="edge">
<title>140531595567168&#45;&gt;140531595614064</title>
<path fill="none" stroke="black" d="M271.5,-65.87C271.5,-59.11 271.5,-49.35 271.5,-40.26"/>
<polygon fill="black" stroke="black" points="275,-40.11 271.5,-30.11 268,-40.11 275,-40.11"/>
</g>
<!-- 140531595569232 -->
<g id="node3" class="node">
<title>140531595569232</title>
<polygon fill="lightgrey" stroke="black" points="316,-140 227,-140 227,-121 316,-121 316,-140"/>
<text text-anchor="middle" x="271.5" y="-128" font-family="monospace" font-size="10.00">AddBackward0</text>
</g>
<!-- 140531595569232&#45;&gt;140531595567168 -->
<g id="edge1" class="edge">
<title>140531595569232&#45;&gt;140531595567168</title>
<path fill="none" stroke="black" d="M271.5,-120.75C271.5,-113.8 271.5,-103.85 271.5,-95.13"/>
<polygon fill="black" stroke="black" points="275,-95.09 271.5,-85.09 268,-95.09 275,-95.09"/>
</g>
<!-- 140531595568800 -->
<g id="node4" class="node">
<title>140531595568800</title>
<polygon fill="lightgrey" stroke="black" points="281,-195 180,-195 180,-176 281,-176 281,-195"/>
<text text-anchor="middle" x="230.5" y="-183" font-family="monospace" font-size="10.00">AddmmBackward0</text>
</g>
<!-- 140531595568800&#45;&gt;140531595569232 -->
<g id="edge2" class="edge">
<title>140531595568800&#45;&gt;140531595569232</title>
<path fill="none" stroke="black" d="M237.27,-175.75C243.06,-168.26 251.56,-157.28 258.64,-148.13"/>
<polygon fill="black" stroke="black" points="261.51,-150.14 264.86,-140.09 255.97,-145.86 261.51,-150.14"/>
</g>
<!-- 140534660247264 -->
<g id="node5" class="node">
<title>140534660247264</title>
<polygon fill="lightblue" stroke="black" points="135,-459 40,-459 40,-418 135,-418 135,-459"/>
<text text-anchor="middle" x="87.5" y="-447" font-family="monospace" font-size="10.00">AddBackward0</text>
<text text-anchor="middle" x="87.5" y="-436" font-family="monospace" font-size="10.00">step1.fc.bias</text>
<text text-anchor="middle" x="87.5" y="-425" font-family="monospace" font-size="10.00">(1)</text>
</g>
<!-- 140534660247264&#45;&gt;140531595568800 -->
<g id="edge3" class="edge">
<title>140534660247264&#45;&gt;140531595568800</title>
<path fill="none" stroke="black" d="M93.61,-417.94C106.18,-379.61 137.57,-292.99 182.5,-231 190.44,-220.04 201.39,-209.65 210.82,-201.66"/>
<polygon fill="black" stroke="black" points="213.06,-204.35 218.6,-195.32 208.64,-198.92 213.06,-204.35"/>
</g>
<!-- 140534553595376 -->
<g id="node6" class="node">
<title>140534553595376</title>
<polygon fill="lightgrey" stroke="black" points="101,-849.5 0,-849.5 0,-830.5 101,-830.5 101,-849.5"/>
<text text-anchor="middle" x="50.5" y="-837.5" font-family="monospace" font-size="10.00">AccumulateGrad</text>
</g>
<!-- 140534553595376&#45;&gt;140534660247264 -->
<g id="edge4" class="edge">
<title>140534553595376&#45;&gt;140534660247264</title>
<path fill="none" stroke="black" d="M45.24,-830.23C34.59,-811.63 11.5,-766.55 11.5,-725.5 11.5,-725.5 11.5,-725.5 11.5,-558.5 11.5,-528.63 17.82,-520.42 33.5,-495 39.83,-484.73 48.36,-474.85 56.76,-466.33"/>
<polygon fill="black" stroke="black" points="59.33,-468.71 64.06,-459.23 54.45,-463.7 59.33,-468.71"/>
</g>
<!-- 140534553592832 -->
<g id="node13" class="node">
<title>140534553592832</title>
<polygon fill="lightgrey" stroke="black" points="216,-789 115,-789 115,-770 216,-770 216,-789"/>
<text text-anchor="middle" x="165.5" y="-777" font-family="monospace" font-size="10.00">AddmmBackward0</text>
</g>
<!-- 140534553595376&#45;&gt;140534553592832 -->
<g id="edge12" class="edge">
<title>140534553595376&#45;&gt;140534553592832</title>
<path fill="none" stroke="black" d="M67.47,-830.37C86.41,-820.73 117.29,-805.03 139.33,-793.81"/>
<polygon fill="black" stroke="black" points="141.14,-796.82 148.46,-789.17 137.96,-790.58 141.14,-796.82"/>
</g>
<!-- 140534064448352 -->
<g id="node7" class="node">
<title>140534064448352</title>
<polygon fill="lightblue" stroke="black" points="98,-921 3,-921 3,-891 98,-891 98,-921"/>
<text text-anchor="middle" x="50.5" y="-909" font-family="monospace" font-size="10.00">step0.fc.bias</text>
<text text-anchor="middle" x="50.5" y="-898" font-family="monospace" font-size="10.00">(1)</text>
</g>
<!-- 140534064448352&#45;&gt;140534553595376 -->
<g id="edge5" class="edge">
<title>140534064448352&#45;&gt;140534553595376</title>
<path fill="none" stroke="black" d="M50.5,-890.8C50.5,-881.7 50.5,-869.79 50.5,-859.9"/>
<polygon fill="black" stroke="black" points="54,-859.84 50.5,-849.84 47,-859.84 54,-859.84"/>
</g>
<!-- 140534553595616 -->
<g id="node8" class="node">
<title>140534553595616</title>
<polygon fill="lightgrey" stroke="black" points="132,-514 43,-514 43,-495 132,-495 132,-514"/>
<text text-anchor="middle" x="87.5" y="-502" font-family="monospace" font-size="10.00">MulBackward0</text>
</g>
<!-- 140534553595616&#45;&gt;140534660247264 -->
<g id="edge6" class="edge">
<title>140534553595616&#45;&gt;140534660247264</title>
<path fill="none" stroke="black" d="M87.5,-494.87C87.5,-488.22 87.5,-478.63 87.5,-469.28"/>
<polygon fill="black" stroke="black" points="91,-469.01 87.5,-459.01 84,-469.01 91,-469.01"/>
</g>
<!-- 140534553594848 -->
<g id="node9" class="node">
<title>140534553594848</title>
<polygon fill="lightgrey" stroke="black" points="135,-569 40,-569 40,-550 135,-550 135,-569"/>
<text text-anchor="middle" x="87.5" y="-557" font-family="monospace" font-size="10.00">ViewBackward0</text>
</g>
<!-- 140534553594848&#45;&gt;140534553595616 -->
<g id="edge7" class="edge">
<title>140534553594848&#45;&gt;140534553595616</title>
<path fill="none" stroke="black" d="M87.5,-549.75C87.5,-542.8 87.5,-532.85 87.5,-524.13"/>
<polygon fill="black" stroke="black" points="91,-524.09 87.5,-514.09 84,-524.09 91,-524.09"/>
</g>
<!-- 140534553594992 -->
<g id="node10" class="node">
<title>140534553594992</title>
<polygon fill="lightgrey" stroke="black" points="133,-624 44,-624 44,-605 133,-605 133,-624"/>
<text text-anchor="middle" x="88.5" y="-612" font-family="monospace" font-size="10.00">SumBackward1</text>
</g>
<!-- 140534553594992&#45;&gt;140534553594848 -->
<g id="edge8" class="edge">
<title>140534553594992&#45;&gt;140534553594848</title>
<path fill="none" stroke="black" d="M88.33,-604.75C88.2,-597.8 88.02,-587.85 87.85,-579.13"/>
<polygon fill="black" stroke="black" points="91.35,-579.02 87.66,-569.09 84.35,-579.15 91.35,-579.02"/>
</g>
<!-- 140534553594800 -->
<g id="node11" class="node">
<title>140534553594800</title>
<polygon fill="lightgrey" stroke="black" points="236,-679 75,-679 75,-660 236,-660 236,-679"/>
<text text-anchor="middle" x="155.5" y="-667" font-family="monospace" font-size="10.00">MseLossBackwardBackward0</text>
</g>
<!-- 140534553594800&#45;&gt;140534553594992 -->
<g id="edge9" class="edge">
<title>140534553594800&#45;&gt;140534553594992</title>
<path fill="none" stroke="black" d="M144.74,-659.98C134.73,-652.07 119.61,-640.11 107.57,-630.58"/>
<polygon fill="black" stroke="black" points="109.47,-627.63 99.46,-624.17 105.13,-633.12 109.47,-627.63"/>
</g>
<!-- 140531595617904 -->
<g id="node25" class="node">
<title>140531595617904</title>
<polygon fill="lightgrey" stroke="black" points="230,-624 153,-624 153,-605 230,-605 230,-624"/>
<text text-anchor="middle" x="191.5" y="-612" font-family="monospace" font-size="10.00">TBackward0</text>
</g>
<!-- 140534553594800&#45;&gt;140531595617904 -->
<g id="edge26" class="edge">
<title>140534553594800&#45;&gt;140531595617904</title>
<path fill="none" stroke="black" d="M161.44,-659.75C166.48,-652.34 173.84,-641.5 180.01,-632.41"/>
<polygon fill="black" stroke="black" points="182.94,-634.33 185.67,-624.09 177.15,-630.39 182.94,-634.33"/>
</g>
<!-- 140534553593072 -->
<g id="node12" class="node">
<title>140534553593072</title>
<polygon fill="lightgrey" stroke="black" points="210,-734 121,-734 121,-715 210,-715 210,-734"/>
<text text-anchor="middle" x="165.5" y="-722" font-family="monospace" font-size="10.00">AddBackward0</text>
</g>
<!-- 140534553593072&#45;&gt;140534553594800 -->
<g id="edge10" class="edge">
<title>140534553593072&#45;&gt;140534553594800</title>
<path fill="none" stroke="black" d="M163.85,-714.75C162.54,-707.8 160.66,-697.85 159.02,-689.13"/>
<polygon fill="black" stroke="black" points="162.41,-688.27 157.12,-679.09 155.54,-689.56 162.41,-688.27"/>
</g>
<!-- 140534553592832&#45;&gt;140534553593072 -->
<g id="edge11" class="edge">
<title>140534553592832&#45;&gt;140534553593072</title>
<path fill="none" stroke="black" d="M165.5,-769.75C165.5,-762.8 165.5,-752.85 165.5,-744.13"/>
<polygon fill="black" stroke="black" points="169,-744.09 165.5,-734.09 162,-744.09 169,-744.09"/>
</g>
<!-- 140534553593456 -->
<g id="node14" class="node">
<title>140534553593456</title>
<polygon fill="lightgrey" stroke="black" points="215,-849.5 138,-849.5 138,-830.5 215,-830.5 215,-849.5"/>
<text text-anchor="middle" x="176.5" y="-837.5" font-family="monospace" font-size="10.00">TBackward0</text>
</g>
<!-- 140534553593456&#45;&gt;140534553592832 -->
<g id="edge13" class="edge">
<title>140534553593456&#45;&gt;140534553592832</title>
<path fill="none" stroke="black" d="M174.88,-830.37C173.33,-822.16 170.96,-809.54 168.99,-799.05"/>
<polygon fill="black" stroke="black" points="172.42,-798.35 167.13,-789.17 165.54,-799.64 172.42,-798.35"/>
</g>
<!-- 140534553593888 -->
<g id="node15" class="node">
<title>140534553593888</title>
<polygon fill="lightgrey" stroke="black" points="246,-915.5 145,-915.5 145,-896.5 246,-896.5 246,-915.5"/>
<text text-anchor="middle" x="195.5" y="-903.5" font-family="monospace" font-size="10.00">AccumulateGrad</text>
</g>
<!-- 140534553593888&#45;&gt;140534553593456 -->
<g id="edge14" class="edge">
<title>140534553593888&#45;&gt;140534553593456</title>
<path fill="none" stroke="black" d="M192.94,-896.37C190.15,-886.97 185.61,-871.67 182,-859.53"/>
<polygon fill="black" stroke="black" points="185.35,-858.5 179.14,-849.91 178.63,-860.49 185.35,-858.5"/>
</g>
<!-- 140531595572368 -->
<g id="node20" class="node">
<title>140531595572368</title>
<polygon fill="lightblue" stroke="black" points="284,-327 177,-327 177,-286 284,-286 284,-327"/>
<text text-anchor="middle" x="230.5" y="-315" font-family="monospace" font-size="10.00">AddBackward0</text>
<text text-anchor="middle" x="230.5" y="-304" font-family="monospace" font-size="10.00">step1.fc.weight</text>
<text text-anchor="middle" x="230.5" y="-293" font-family="monospace" font-size="10.00">(1, 5)</text>
</g>
<!-- 140534553593888&#45;&gt;140531595572368 -->
<g id="edge20" class="edge">
<title>140534553593888&#45;&gt;140531595572368</title>
<path fill="none" stroke="black" d="M204.52,-896.26C223.22,-877.15 264.5,-829.43 264.5,-780.5 264.5,-780.5 264.5,-780.5 264.5,-437.5 264.5,-402.08 252.54,-362.94 242.8,-336.96"/>
<polygon fill="black" stroke="black" points="245.96,-335.4 239.08,-327.34 239.43,-337.93 245.96,-335.4"/>
</g>
<!-- 140531595612944 -->
<g id="node16" class="node">
<title>140531595612944</title>
<polygon fill="lightblue" stroke="black" points="249,-987 142,-987 142,-957 249,-957 249,-987"/>
<text text-anchor="middle" x="195.5" y="-975" font-family="monospace" font-size="10.00">step0.fc.weight</text>
<text text-anchor="middle" x="195.5" y="-964" font-family="monospace" font-size="10.00">(1, 5)</text>
</g>
<!-- 140531595612944&#45;&gt;140534553593888 -->
<g id="edge15" class="edge">
<title>140531595612944&#45;&gt;140534553593888</title>
<path fill="none" stroke="black" d="M195.5,-956.8C195.5,-947.7 195.5,-935.79 195.5,-925.9"/>
<polygon fill="black" stroke="black" points="199,-925.84 195.5,-915.84 192,-925.84 199,-925.84"/>
</g>
<!-- 140531595567888 -->
<g id="node17" class="node">
<title>140531595567888</title>
<polygon fill="lightgrey" stroke="black" points="394,-789 293,-789 293,-770 394,-770 394,-789"/>
<text text-anchor="middle" x="343.5" y="-777" font-family="monospace" font-size="10.00">AccumulateGrad</text>
</g>
<!-- 140531595567888&#45;&gt;140531595569232 -->
<g id="edge27" class="edge">
<title>140531595567888&#45;&gt;140531595569232</title>
<path fill="none" stroke="black" d="M340.67,-769.93C334.94,-751.8 322.5,-708.13 322.5,-670.5 322.5,-670.5 322.5,-670.5 322.5,-239.5 322.5,-204.28 300.05,-168.25 284.94,-147.99"/>
<polygon fill="black" stroke="black" points="287.7,-145.84 278.81,-140.09 282.17,-150.13 287.7,-145.84"/>
</g>
<!-- 140531595567888&#45;&gt;140534553593072 -->
<g id="edge16" class="edge">
<title>140531595567888&#45;&gt;140534553593072</title>
<path fill="none" stroke="black" d="M314.9,-769.98C284.89,-761.05 237.52,-746.94 204.18,-737.02"/>
<polygon fill="black" stroke="black" points="204.91,-733.58 194.32,-734.08 202.91,-740.29 204.91,-733.58"/>
</g>
<!-- 140531595613184 -->
<g id="node18" class="node">
<title>140531595613184</title>
<polygon fill="lightblue" stroke="black" points="382,-855 305,-855 305,-825 382,-825 382,-855"/>
<text text-anchor="middle" x="343.5" y="-843" font-family="monospace" font-size="10.00">meta_param</text>
<text text-anchor="middle" x="343.5" y="-832" font-family="monospace" font-size="10.00">()</text>
</g>
<!-- 140531595613184&#45;&gt;140531595567888 -->
<g id="edge17" class="edge">
<title>140531595613184&#45;&gt;140531595567888</title>
<path fill="none" stroke="black" d="M343.5,-824.84C343.5,-817.21 343.5,-807.7 343.5,-799.45"/>
<polygon fill="black" stroke="black" points="347,-799.27 343.5,-789.27 340,-799.27 347,-799.27"/>
</g>
<!-- 140534553594272 -->
<g id="node19" class="node">
<title>140534553594272</title>
<polygon fill="lightgrey" stroke="black" points="269,-250 192,-250 192,-231 269,-231 269,-250"/>
<text text-anchor="middle" x="230.5" y="-238" font-family="monospace" font-size="10.00">TBackward0</text>
</g>
<!-- 140534553594272&#45;&gt;140531595568800 -->
<g id="edge18" class="edge">
<title>140534553594272&#45;&gt;140531595568800</title>
<path fill="none" stroke="black" d="M230.5,-230.75C230.5,-223.8 230.5,-213.85 230.5,-205.13"/>
<polygon fill="black" stroke="black" points="234,-205.09 230.5,-195.09 227,-205.09 234,-205.09"/>
</g>
<!-- 140531595572368&#45;&gt;140534553594272 -->
<g id="edge19" class="edge">
<title>140531595572368&#45;&gt;140534553594272</title>
<path fill="none" stroke="black" d="M230.5,-285.95C230.5,-277.85 230.5,-268.5 230.5,-260.47"/>
<polygon fill="black" stroke="black" points="234,-260.26 230.5,-250.26 227,-260.26 234,-260.26"/>
</g>
<!-- 140534553593504 -->
<g id="node21" class="node">
<title>140534553593504</title>
<polygon fill="lightgrey" stroke="black" points="236,-382 147,-382 147,-363 236,-363 236,-382"/>
<text text-anchor="middle" x="191.5" y="-370" font-family="monospace" font-size="10.00">MulBackward0</text>
</g>
<!-- 140534553593504&#45;&gt;140531595572368 -->
<g id="edge21" class="edge">
<title>140534553593504&#45;&gt;140531595572368</title>
<path fill="none" stroke="black" d="M196.76,-362.87C201.03,-355.87 207.29,-345.59 213.27,-335.78"/>
<polygon fill="black" stroke="black" points="216.4,-337.37 218.61,-327.01 210.42,-333.73 216.4,-337.37"/>
</g>
<!-- 140534553592976 -->
<g id="node22" class="node">
<title>140534553592976</title>
<polygon fill="lightgrey" stroke="black" points="231,-448 154,-448 154,-429 231,-429 231,-448"/>
<text text-anchor="middle" x="192.5" y="-436" font-family="monospace" font-size="10.00">TBackward0</text>
</g>
<!-- 140534553592976&#45;&gt;140534553593504 -->
<g id="edge22" class="edge">
<title>140534553592976&#45;&gt;140534553593504</title>
<path fill="none" stroke="black" d="M192.37,-428.87C192.22,-419.66 191.99,-404.79 191.8,-392.77"/>
<polygon fill="black" stroke="black" points="195.3,-392.35 191.64,-382.41 188.3,-392.46 195.3,-392.35"/>
</g>
<!-- 140534553593216 -->
<g id="node23" class="node">
<title>140534553593216</title>
<polygon fill="lightgrey" stroke="black" points="232,-514 155,-514 155,-495 232,-495 232,-514"/>
<text text-anchor="middle" x="193.5" y="-502" font-family="monospace" font-size="10.00">TBackward0</text>
</g>
<!-- 140534553593216&#45;&gt;140534553592976 -->
<g id="edge23" class="edge">
<title>140534553593216&#45;&gt;140534553592976</title>
<path fill="none" stroke="black" d="M193.37,-494.87C193.22,-485.66 192.99,-470.79 192.8,-458.77"/>
<polygon fill="black" stroke="black" points="196.3,-458.35 192.64,-448.41 189.3,-458.46 196.3,-458.35"/>
</g>
<!-- 140534553593552 -->
<g id="node24" class="node">
<title>140534553593552</title>
<polygon fill="lightgrey" stroke="black" points="236,-569 153,-569 153,-550 236,-550 236,-569"/>
<text text-anchor="middle" x="194.5" y="-557" font-family="monospace" font-size="10.00">MmBackward0</text>
</g>
<!-- 140534553593552&#45;&gt;140534553593216 -->
<g id="edge24" class="edge">
<title>140534553593552&#45;&gt;140534553593216</title>
<path fill="none" stroke="black" d="M194.33,-549.75C194.2,-542.8 194.02,-532.85 193.85,-524.13"/>
<polygon fill="black" stroke="black" points="197.35,-524.02 193.66,-514.09 190.35,-524.15 197.35,-524.02"/>
</g>
<!-- 140531595617904&#45;&gt;140534553593552 -->
<g id="edge25" class="edge">
<title>140531595617904&#45;&gt;140534553593552</title>
<path fill="none" stroke="black" d="M192,-604.75C192.39,-597.8 192.95,-587.85 193.45,-579.13"/>
<polygon fill="black" stroke="black" points="196.94,-579.27 194.01,-569.09 189.95,-578.88 196.94,-579.27"/>
</g>
</g>
</svg>
