<?xml version="1.0" encoding="UTF-8" standalone="no"?>
<!DOCTYPE svg PUBLIC "-//W3C//DTD SVG 1.1//EN"
 "http://www.w3.org/Graphics/SVG/1.1/DTD/svg11.dtd">
<!-- Generated by graphviz version 2.42.3 (20191010.1750)
 -->
<!-- Title: %3 Pages: 1 -->
<svg width="109pt" height="214pt"
 viewBox="0.00 0.00 109.00 214.00" xmlns="http://www.w3.org/2000/svg" xmlns:xlink="http://www.w3.org/1999/xlink">
<g id="graph0" class="graph" transform="scale(1 1) rotate(0) translate(4 210)">
<title>%3</title>
<polygon fill="white" stroke="transparent" points="-4,4 -4,-210 105,-210 105,4 -4,4"/>
<!-- 140534064715952 -->
<g id="node1" class="node">
<title>140534064715952</title>
<polygon fill="#caff70" stroke="black" points="77.5,-30 23.5,-30 23.5,0 77.5,0 77.5,-30"/>
<text text-anchor="middle" x="50.5" y="-18" font-family="monospace" font-size="10.00">y</text>
<text text-anchor="middle" x="50.5" y="-7" font-family="monospace" font-size="10.00">()</text>
</g>
<!-- 140534064838304 -->
<g id="node2" class="node">
<title>140534064838304</title>
<polygon fill="lightgrey" stroke="black" points="95,-85 6,-85 6,-66 95,-66 95,-85"/>
<text text-anchor="middle" x="50.5" y="-73" font-family="monospace" font-size="10.00">MulBackward0</text>
</g>
<!-- 140534064838304&#45;&gt;140534064715952 -->
<g id="edge3" class="edge">
<title>140534064838304&#45;&gt;140534064715952</title>
<path fill="none" stroke="black" d="M50.5,-65.87C50.5,-59.11 50.5,-49.35 50.5,-40.26"/>
<polygon fill="black" stroke="black" points="54,-40.11 50.5,-30.11 47,-40.11 54,-40.11"/>
</g>
<!-- 140534064837776 -->
<g id="node3" class="node">
<title>140534064837776</title>
<polygon fill="lightgrey" stroke="black" points="101,-140 0,-140 0,-121 101,-121 101,-140"/>
<text text-anchor="middle" x="50.5" y="-128" font-family="monospace" font-size="10.00">AccumulateGrad</text>
</g>
<!-- 140534064837776&#45;&gt;140534064838304 -->
<g id="edge1" class="edge">
<title>140534064837776&#45;&gt;140534064838304</title>
<path fill="none" stroke="black" d="M50.5,-120.75C50.5,-113.8 50.5,-103.85 50.5,-95.13"/>
<polygon fill="black" stroke="black" points="54,-95.09 50.5,-85.09 47,-95.09 54,-95.09"/>
</g>
<!-- 140534064714832 -->
<g id="node4" class="node">
<title>140534064714832</title>
<polygon fill="lightblue" stroke="black" points="77.5,-206 23.5,-206 23.5,-176 77.5,-176 77.5,-206"/>
<text text-anchor="middle" x="50.5" y="-194" font-family="monospace" font-size="10.00">x</text>
<text text-anchor="middle" x="50.5" y="-183" font-family="monospace" font-size="10.00">()</text>
</g>
<!-- 140534064714832&#45;&gt;140534064837776 -->
<g id="edge2" class="edge">
<title>140534064714832&#45;&gt;140534064837776</title>
<path fill="none" stroke="black" d="M50.5,-175.84C50.5,-168.21 50.5,-158.7 50.5,-150.45"/>
<polygon fill="black" stroke="black" points="54,-150.27 50.5,-140.27 47,-150.27 54,-150.27"/>
</g>
</g>
</svg>
