<?xml version="1.0" encoding="UTF-8" standalone="no"?>
<!DOCTYPE svg PUBLIC "-//W3C//DTD SVG 1.1//EN"
 "http://www.w3.org/Graphics/SVG/1.1/DTD/svg11.dtd">
<!-- Generated by graphviz version 2.42.3 (20191010.1750)
 -->
<!-- Title: %3 Pages: 1 -->
<svg width="216pt" height="335pt"
 viewBox="0.00 0.00 216.00 335.00" xmlns="http://www.w3.org/2000/svg" xmlns:xlink="http://www.w3.org/1999/xlink">
<g id="graph0" class="graph" transform="scale(1 1) rotate(0) translate(4 331)">
<title>%3</title>
<polygon fill="white" stroke="transparent" points="-4,4 -4,-331 212,-331 212,4 -4,4"/>
<!-- 140534659780336 -->
<g id="node1" class="node">
<title>140534659780336</title>
<polygon fill="#caff70" stroke="black" points="130.5,-30 76.5,-30 76.5,0 130.5,0 130.5,-30"/>
<text text-anchor="middle" x="103.5" y="-18" font-family="monospace" font-size="10.00">loss</text>
<text text-anchor="middle" x="103.5" y="-7" font-family="monospace" font-size="10.00">()</text>
</g>
<!-- 140531595570768 -->
<g id="node2" class="node">
<title>140531595570768</title>
<polygon fill="lightgrey" stroke="black" points="160,-85 47,-85 47,-66 160,-66 160,-85"/>
<text text-anchor="middle" x="103.5" y="-73" font-family="monospace" font-size="10.00">MseLossBackward0</text>
</g>
<!-- 140531595570768&#45;&gt;140534659780336 -->
<g id="edge7" class="edge">
<title>140531595570768&#45;&gt;140534659780336</title>
<path fill="none" stroke="black" d="M103.5,-65.87C103.5,-59.11 103.5,-49.35 103.5,-40.26"/>
<polygon fill="black" stroke="black" points="107,-40.11 103.5,-30.11 100,-40.11 107,-40.11"/>
</g>
<!-- 140531595570576 -->
<g id="node3" class="node">
<title>140531595570576</title>
<polygon fill="lightgrey" stroke="black" points="154,-140 53,-140 53,-121 154,-121 154,-140"/>
<text text-anchor="middle" x="103.5" y="-128" font-family="monospace" font-size="10.00">AddmmBackward0</text>
</g>
<!-- 140531595570576&#45;&gt;140531595570768 -->
<g id="edge1" class="edge">
<title>140531595570576&#45;&gt;140531595570768</title>
<path fill="none" stroke="black" d="M103.5,-120.75C103.5,-113.8 103.5,-103.85 103.5,-95.13"/>
<polygon fill="black" stroke="black" points="107,-95.09 103.5,-85.09 100,-95.09 107,-95.09"/>
</g>
<!-- 140531595570528 -->
<g id="node4" class="node">
<title>140531595570528</title>
<polygon fill="lightgrey" stroke="black" points="101,-195 0,-195 0,-176 101,-176 101,-195"/>
<text text-anchor="middle" x="50.5" y="-183" font-family="monospace" font-size="10.00">AccumulateGrad</text>
</g>
<!-- 140531595570528&#45;&gt;140531595570576 -->
<g id="edge2" class="edge">
<title>140531595570528&#45;&gt;140531595570576</title>
<path fill="none" stroke="black" d="M59.25,-175.75C66.97,-168.03 78.4,-156.6 87.72,-147.28"/>
<polygon fill="black" stroke="black" points="90.31,-149.64 94.91,-140.09 85.36,-144.69 90.31,-149.64"/>
</g>
<!-- 140531595583632 -->
<g id="node5" class="node">
<title>140531595583632</title>
<polygon fill="lightblue" stroke="black" points="80,-261 21,-261 21,-231 80,-231 80,-261"/>
<text text-anchor="middle" x="50.5" y="-249" font-family="monospace" font-size="10.00">fc.bias</text>
<text text-anchor="middle" x="50.5" y="-238" font-family="monospace" font-size="10.00">(1)</text>
</g>
<!-- 140531595583632&#45;&gt;140531595570528 -->
<g id="edge3" class="edge">
<title>140531595583632&#45;&gt;140531595570528</title>
<path fill="none" stroke="black" d="M50.5,-230.84C50.5,-223.21 50.5,-213.7 50.5,-205.45"/>
<polygon fill="black" stroke="black" points="54,-205.27 50.5,-195.27 47,-205.27 54,-205.27"/>
</g>
<!-- 140531595571104 -->
<g id="node6" class="node">
<title>140531595571104</title>
<polygon fill="lightgrey" stroke="black" points="196,-195 119,-195 119,-176 196,-176 196,-195"/>
<text text-anchor="middle" x="157.5" y="-183" font-family="monospace" font-size="10.00">TBackward0</text>
</g>
<!-- 140531595571104&#45;&gt;140531595570576 -->
<g id="edge4" class="edge">
<title>140531595571104&#45;&gt;140531595570576</title>
<path fill="none" stroke="black" d="M148.58,-175.75C140.72,-168.03 129.07,-156.6 119.58,-147.28"/>
<polygon fill="black" stroke="black" points="121.84,-144.6 112.25,-140.09 116.94,-149.59 121.84,-144.6"/>
</g>
<!-- 140531595570432 -->
<g id="node7" class="node">
<title>140531595570432</title>
<polygon fill="lightgrey" stroke="black" points="208,-255.5 107,-255.5 107,-236.5 208,-236.5 208,-255.5"/>
<text text-anchor="middle" x="157.5" y="-243.5" font-family="monospace" font-size="10.00">AccumulateGrad</text>
</g>
<!-- 140531595570432&#45;&gt;140531595571104 -->
<g id="edge5" class="edge">
<title>140531595570432&#45;&gt;140531595571104</title>
<path fill="none" stroke="black" d="M157.5,-236.37C157.5,-228.25 157.5,-215.81 157.5,-205.39"/>
<polygon fill="black" stroke="black" points="161,-205.17 157.5,-195.17 154,-205.17 161,-205.17"/>
</g>
<!-- 140531595582816 -->
<g id="node8" class="node">
<title>140531595582816</title>
<polygon fill="lightblue" stroke="black" points="193,-327 122,-327 122,-297 193,-297 193,-327"/>
<text text-anchor="middle" x="157.5" y="-315" font-family="monospace" font-size="10.00">fc.weight</text>
<text text-anchor="middle" x="157.5" y="-304" font-family="monospace" font-size="10.00">(1, 5)</text>
</g>
<!-- 140531595582816&#45;&gt;140531595570432 -->
<g id="edge6" class="edge">
<title>140531595582816&#45;&gt;140531595570432</title>
<path fill="none" stroke="black" d="M157.5,-296.8C157.5,-287.7 157.5,-275.79 157.5,-265.9"/>
<polygon fill="black" stroke="black" points="161,-265.84 157.5,-255.84 154,-265.84 161,-265.84"/>
</g>
</g>
</svg>
